<svg xmlns="http://www.w3.org/2000/svg" version="1.1" xmlns:xlink="http://www.w3.org/1999/xlink" xmlns:svgjs="http://svgjs.dev/svgjs" width="1450" height="560" preserveAspectRatio="none" viewBox="0 0 1450 560">
  <g mask="url(&quot;#SvgjsMask1078&quot;)" fill="none">
    <rect width="1450" height="560" x="0" y="0" fill="rgb(209, 178, 125)"/>
    <path d="M 0,224 C 145,183 435,25.2 725,19 C 1015,12.8 1305,158.2 1450,193L1450 560L0 560z" fill="rgba(24, 15, 2, 1)"/>
    <path d="M 0,527 C 58,493 174,350.4 290,357 C 406,363.6 464,573.4 580,560 C 696,546.6 754,310.8 870,290 C 986,269.2 1044,438.8 1160,456 C 1276,473.2 1392,392 1450,376L1450 560L0 560z" fill="rgba(220, 201, 173, 1)"/>
  </g>
  <defs>
    <mask id="SvgjsMask1078">
      <rect width="1450" height="560" fill="#ffffff"/>
    </mask>
  </defs>
</svg>
